<svg xmlns="http://www.w3.org/2000/svg" width="1600" height="420" viewBox="0 0 1600 420" preserveAspectRatio="xMidYMid slice">
  <!-- animated gradient background -->
  <defs>
    <linearGradient id="g" x1="0" y1="0" x2="1" y2="0">
      <stop offset="0%" stop-color="#0f0c29">
        <animate attributeName="stop-color" values="#0f0c29;#302b63;#24243e;#0f0c29" dur="12s" repeatCount="indefinite"/>
      </stop>
      <stop offset="100%" stop-color="#24243e">
        <animate attributeName="stop-color" values="#24243e;#0f0c29;#302b63;#24243e" dur="12s" repeatCount="indefinite"/>
      </stop>
    </linearGradient>
  </defs>
  <rect width="100%" height="100%" fill="url(#g)"/>

  <!-- faint grid (tech vibe) -->
  <g stroke="#ffffff" stroke-opacity="0.06" stroke-width="1">
    <g>
      <path d="M0 60 H1600 M0 120 H1600 M0 180 H1600 M0 240 H1600 M0 300 H1600 M0 360 H1600"/>
      <path d="M100 0 V420 M300 0 V420 M500 0 V420 M700 0 V420 M900 0 V420 M1100 0 V420 M1300 0 V420 M1500 0 V420"/>
    </g>
  </g>

  <!-- neural network nodes + edges (animated pulse) -->
  <g stroke="#00e5ff" stroke-opacity="0.35">
    <line x1="160" y1="300" x2="360" y2="240">
      <animate attributeName="stroke-opacity" values="0.15;0.6;0.15" dur="4s" repeatCount="indefinite"/>
    </line>
    <line x1="360" y1="240" x2="560" y2="180">
      <animate attributeName="stroke-opacity" values="0.15;0.6;0.15" dur="4.5s" repeatCount="indefinite"/>
    </line>
    <line x1="560" y1="180" x2="760" y2="220">
      <animate attributeName="stroke-opacity" values="0.15;0.6;0.15" dur="5s" repeatCount="indefinite"/>
    </line>
    <line x1="760" y1="220" x2="960" y2="160">
      <animate attributeName="stroke-opacity" values="0.15;0.6;0.15" dur="4.2s" repeatCount="indefinite"/>
    </line>
    <line x1="960" y1="160" x2="1160" y2="210">
      <animate attributeName="stroke-opacity" values="0.15;0.6;0.15" dur="4.8s" repeatCount="indefinite"/>
    </line>
    <line x1="1160" y1="210" x2="1360" y2="150">
      <animate attributeName="stroke-opacity" values="0.15;0.6;0.15" dur="4.4s" repeatCount="indefinite"/>
    </line>
  </g>

  <g fill="#00e5ff">
    <circle cx="160" cy="300" r="2">
      <animate attributeName="r" values="2;3;2" dur="2.4s" repeatCount="indefinite"/>
    </circle>
    <circle cx="360" cy="240" r="2">
      <animate attributeName="r" values="2;3;2" dur="2.2s" repeatCount="indefinite"/>
    </circle>
    <circle cx="560" cy="180" r="2">
      <animate attributeName="r" values="2;3;2" dur="2.0s" repeatCount="indefinite"/>
    </circle>
    <circle cx="760" cy="220" r="2">
      <animate attributeName="r" values="2;3;2" dur="2.3s" repeatCount="indefinite"/>
    </circle>
    <circle cx="960" cy="160" r="2">
      <animate attributeName="r" values="2;3;2" dur="2.1s" repeatCount="indefinite"/>
    </circle>
    <circle cx="1160" cy="210" r="2">
      <animate attributeName="r" values="2;3;2" dur="2.5s" repeatCount="indefinite"/>
    </circle>
    <circle cx="1360" cy="150" r="2">
      <animate attributeName="r" values="2;3;2" dur="2.2s" repeatCount="indefinite"/>
    </circle>
  </g>

  <!-- soft vertical glow sweep -->
  <rect x="-400" y="0" width="400" height="420" fill="#00e5ff" opacity="0.05">
    <animate attributeName="x" values="-400;1800" dur="12s" repeatCount="indefinite"/>
  </rect>
</svg>
